<svg width="1514" height="472" viewBox="0 0 1514 472" fill="none" xmlns="http://www.w3.org/2000/svg">
<path d="M499.232 281.64C493.259 281.64 487.627 280.531 482.336 278.312C477.045 276.008 472.395 272.808 468.384 268.712C464.373 264.531 461.216 259.624 458.912 253.992C456.693 248.275 455.584 241.917 455.584 234.92C455.584 228.605 456.736 222.717 459.04 217.256C461.344 211.795 464.544 206.973 468.64 202.792C472.736 198.611 477.515 195.368 482.976 193.064C488.523 190.675 494.496 189.48 500.896 189.48C509.259 189.48 516.64 191.272 523.04 194.856C529.44 198.44 534.176 203.261 537.248 209.32L521.632 221.096C519.584 217.085 516.597 213.928 512.672 211.624C508.832 209.32 504.651 208.168 500.128 208.168C496.715 208.168 493.557 208.893 490.656 210.344C487.84 211.709 485.365 213.672 483.232 216.232C481.184 218.707 479.605 221.608 478.496 224.936C477.387 228.264 476.832 231.848 476.832 235.688C476.832 239.613 477.429 243.24 478.624 246.568C479.819 249.896 481.483 252.797 483.616 255.272C485.749 257.661 488.267 259.539 491.168 260.904C494.155 262.269 497.44 262.952 501.024 262.952C505.376 262.952 509.515 261.885 513.44 259.752C517.451 257.533 521.12 254.291 524.448 250.024V270.76C517.195 278.013 508.789 281.64 499.232 281.64ZM523.168 248.744H505.504V233.512H540.576V281H523.168V248.744ZM545.494 281V190.12H586.454C590.721 190.12 594.646 191.016 598.23 192.808C601.899 194.515 605.057 196.861 607.702 199.848C610.347 202.749 612.395 206.035 613.846 209.704C615.382 213.373 616.15 217.085 616.15 220.84C616.15 224.595 615.553 228.179 614.358 231.592C613.163 234.92 611.457 237.949 609.238 240.68C607.019 243.325 604.374 245.501 601.302 247.208L621.27 281H598.102L580.694 251.688H566.486V281H545.494ZM566.486 233.384H585.686C587.393 233.384 588.886 232.872 590.166 231.848C591.531 230.739 592.641 229.245 593.494 227.368C594.347 225.491 594.774 223.315 594.774 220.84C594.774 218.365 594.262 216.232 593.238 214.44C592.299 212.563 591.105 211.112 589.654 210.088C588.203 209.064 586.667 208.552 585.046 208.552H566.486V233.384ZM645.196 190.12H667.852L699.084 281H677.58L670.54 260.648H642.252L635.34 281H613.836L645.196 190.12ZM667.084 246.184L656.46 211.24L645.58 246.184H667.084ZM777.282 190.12V281H756.29V243.752H720.066V281H699.074V190.12H720.066V225.32H756.29V190.12H777.282ZM808.651 190.12H831.307L862.539 281H841.035L833.995 260.648H805.707L798.795 281H777.291L808.651 190.12ZM830.539 246.184L819.915 211.24L809.035 246.184H830.539ZM923.402 208.552H895.754V281H874.762V208.552H846.986V190.12H923.402V208.552ZM988.566 262.568V281H924.694V190.12H987.414V208.552H945.686V226.216H981.526V243.24H945.686V262.568H988.566ZM992.359 281V190.12H1013.35V229.288L1046.63 190.12H1070.18L1036.14 230.696L1072.49 281H1048.42L1022.82 244.52L1013.35 254.248V281H992.359ZM1091.27 229.032V281H1070.27V190.12H1086.91L1129.03 243.624V190.12H1150.02V281H1132.87L1091.27 229.032ZM1198.25 281.768C1191.42 281.768 1185.23 280.488 1179.69 277.928C1174.23 275.283 1169.49 271.784 1165.48 267.432C1161.55 262.995 1158.52 258.045 1156.39 252.584C1154.26 247.037 1153.19 241.32 1153.19 235.432C1153.19 229.373 1154.3 223.613 1156.52 218.152C1158.82 212.691 1161.98 207.827 1165.99 203.56C1170.09 199.208 1174.91 195.795 1180.45 193.32C1186 190.845 1192.06 189.608 1198.63 189.608C1205.37 189.608 1211.47 190.931 1216.93 193.576C1222.48 196.136 1227.22 199.635 1231.14 204.072C1235.15 208.509 1238.23 213.501 1240.36 219.048C1242.49 224.509 1243.56 230.099 1243.56 235.816C1243.56 241.875 1242.45 247.635 1240.23 253.096C1238.01 258.557 1234.85 263.464 1230.76 267.816C1226.66 272.083 1221.84 275.496 1216.29 278.056C1210.83 280.531 1204.82 281.768 1198.25 281.768ZM1174.57 235.688C1174.57 239.187 1175.08 242.6 1176.1 245.928C1177.13 249.171 1178.62 252.072 1180.58 254.632C1182.63 257.192 1185.15 259.24 1188.13 260.776C1191.12 262.312 1194.53 263.08 1198.37 263.08C1202.39 263.08 1205.88 262.312 1208.87 260.776C1211.86 259.155 1214.33 257.021 1216.29 254.376C1218.26 251.731 1219.71 248.787 1220.65 245.544C1221.67 242.216 1222.18 238.845 1222.18 235.432C1222.18 231.933 1221.67 228.563 1220.65 225.32C1219.62 222.077 1218.09 219.176 1216.04 216.616C1213.99 213.971 1211.47 211.923 1208.49 210.472C1205.5 209.021 1202.13 208.296 1198.37 208.296C1194.36 208.296 1190.87 209.064 1187.88 210.6C1184.98 212.136 1182.5 214.227 1180.45 216.872C1178.49 219.432 1177 222.376 1175.97 225.704C1175.04 228.947 1174.57 232.275 1174.57 235.688ZM1246.73 281V190.12H1267.72V262.568H1311.75V281H1246.73ZM1350.83 281.768C1344 281.768 1337.81 280.488 1332.27 277.928C1326.81 275.283 1322.07 271.784 1318.06 267.432C1314.13 262.995 1311.1 258.045 1308.97 252.584C1306.84 247.037 1305.77 241.32 1305.77 235.432C1305.77 229.373 1306.88 223.613 1309.1 218.152C1311.4 212.691 1314.56 207.827 1318.57 203.56C1322.67 199.208 1327.49 195.795 1333.04 193.32C1338.58 190.845 1344.64 189.608 1351.21 189.608C1357.95 189.608 1364.05 190.931 1369.52 193.576C1375.06 196.136 1379.8 199.635 1383.72 204.072C1387.73 208.509 1390.81 213.501 1392.94 219.048C1395.07 224.509 1396.14 230.099 1396.14 235.816C1396.14 241.875 1395.03 247.635 1392.81 253.096C1390.59 258.557 1387.44 263.464 1383.34 267.816C1379.24 272.083 1374.42 275.496 1368.88 278.056C1363.41 280.531 1357.4 281.768 1350.83 281.768ZM1327.15 235.688C1327.15 239.187 1327.66 242.6 1328.68 245.928C1329.71 249.171 1331.2 252.072 1333.16 254.632C1335.21 257.192 1337.73 259.24 1340.72 260.776C1343.7 262.312 1347.12 263.08 1350.96 263.08C1354.97 263.08 1358.46 262.312 1361.45 260.776C1364.44 259.155 1366.91 257.021 1368.88 254.376C1370.84 251.731 1372.29 248.787 1373.23 245.544C1374.25 242.216 1374.76 238.845 1374.76 235.432C1374.76 231.933 1374.25 228.563 1373.23 225.32C1372.2 222.077 1370.67 219.176 1368.62 216.616C1366.57 213.971 1364.05 211.923 1361.07 210.472C1358.08 209.021 1354.71 208.296 1350.96 208.296C1346.94 208.296 1343.45 209.064 1340.46 210.6C1337.56 212.136 1335.08 214.227 1333.04 216.872C1331.07 219.432 1329.58 222.376 1328.56 225.704C1327.62 228.947 1327.15 232.275 1327.15 235.688ZM1437.84 281.64C1431.86 281.64 1426.23 280.531 1420.94 278.312C1415.65 276.008 1411 272.808 1406.99 268.712C1402.98 264.531 1399.82 259.624 1397.52 253.992C1395.3 248.275 1394.19 241.917 1394.19 234.92C1394.19 228.605 1395.34 222.717 1397.64 217.256C1399.95 211.795 1403.15 206.973 1407.24 202.792C1411.34 198.611 1416.12 195.368 1421.58 193.064C1427.13 190.675 1433.1 189.48 1439.5 189.48C1447.86 189.48 1455.24 191.272 1461.64 194.856C1468.04 198.44 1472.78 203.261 1475.85 209.32L1460.24 221.096C1458.19 217.085 1455.2 213.928 1451.28 211.624C1447.44 209.32 1443.26 208.168 1438.73 208.168C1435.32 208.168 1432.16 208.893 1429.26 210.344C1426.44 211.709 1423.97 213.672 1421.84 216.232C1419.79 218.707 1418.21 221.608 1417.1 224.936C1415.99 228.264 1415.44 231.848 1415.44 235.688C1415.44 239.613 1416.03 243.24 1417.23 246.568C1418.42 249.896 1420.09 252.797 1422.22 255.272C1424.35 257.661 1426.87 259.539 1429.77 260.904C1432.76 262.269 1436.04 262.952 1439.63 262.952C1443.98 262.952 1448.12 261.885 1452.04 259.752C1456.06 257.533 1459.72 254.291 1463.05 250.024V270.76C1455.8 278.013 1447.39 281.64 1437.84 281.64ZM1461.77 248.744H1444.11V233.512H1479.18V281H1461.77V248.744ZM1484.1 281V190.12H1505.09V281H1484.1Z" fill="#181C1B"/>
<path d="M128.322 196.455L203.041 110.395C209.107 103.408 212.214 94.3329 211.704 85.0939C209.959 53.5311 171.005 39.7331 149.782 63.1604L29.8789 195.518C12.8447 214.321 12.5942 242.902 29.2961 262.001L174.066 427.549C194.262 450.644 230.302 450.271 250.016 426.763L382.628 268.628C409.914 236.09 386.78 186.5 344.316 186.5H237.75C223.805 186.5 212.5 197.805 212.5 211.75C212.5 225.695 223.805 237 237.75 237H248.333C279.696 237 295.926 274.442 274.485 297.331L251.266 322.117C230.689 344.083 195.512 343.023 176.294 319.859L127.596 261.16C111.967 242.322 112.274 214.939 128.322 196.455Z" fill="#181C1B"/>
<path d="M231.278 120.942L258.762 84.5035C262.745 79.2238 270.663 79.1944 274.685 84.4445L302.589 120.875C305.674 124.903 305.254 130.603 301.611 134.135L273.7 161.198C269.799 164.98 263.593 164.956 259.722 161.144L232.245 134.089C228.671 130.57 228.257 124.947 231.278 120.942Z" fill="#181C1B"/>
</svg>
